<?xml version="1.0" encoding="utf-8"?>
<!-- Generator: Adobe Illustrator 24.0.2, SVG Export Plug-In . SVG Version: 6.00 Build 0)  -->
<svg version="1.1" id="Lager_1" xmlns="http://www.w3.org/2000/svg" xmlns:xlink="http://www.w3.org/1999/xlink" x="0px" y="0px"
	 viewBox="0 0 25.5 25.5" style="enable-background:new 0 0 25.5 25.5;" xml:space="preserve">
<style type="text/css">
	.st0{fill:#FFFFFF;}
</style>
<title>clear-day</title>
<g id="Lager_2_1_">
	<g id="Lager_1-2">
		<path id="Icon_weather-day-sunny" class="st0" d="M0,12.7c0-0.6,0.4-1,1-1h2.5c0.3,0,0.5,0.1,0.7,0.3c0.4,0.4,0.4,1,0,1.5
			c-0.2,0.2-0.4,0.3-0.7,0.3H1c-0.3,0-0.5-0.1-0.7-0.3C0.1,13.3,0,13,0,12.7z M3.4,21.1c0-0.3,0.1-0.5,0.3-0.7l1.8-1.7
			c0.2-0.2,0.4-0.3,0.7-0.3c0.3,0,0.5,0.1,0.7,0.3c0.2,0.2,0.3,0.4,0.3,0.7c0,0.3-0.1,0.6-0.3,0.8l-1.7,1.7c-0.4,0.4-1.1,0.4-1.5,0
			C3.5,21.6,3.4,21.3,3.4,21.1z M3.4,4.4c0-0.3,0.1-0.5,0.3-0.7c0.2-0.2,0.5-0.3,0.8-0.3c0.3,0,0.5,0.1,0.7,0.3l1.7,1.8
			c0.2,0.2,0.3,0.4,0.3,0.7c0,0.6-0.4,1-1,1h0c-0.3,0-0.5-0.1-0.7-0.3L3.7,5.2C3.5,5,3.4,4.7,3.4,4.4z M6.5,12.7
			c0-1.1,0.3-2.2,0.8-3.1c0.6-1,1.3-1.7,2.3-2.3c2.5-1.4,5.5-1,7.5,1c1.2,1.2,1.8,2.8,1.8,4.4c0,1.1-0.3,2.2-0.8,3.1
			c-1.7,3-5.5,4.1-8.5,2.4C7.7,17.1,6.5,15,6.5,12.7z M8.5,12.7c-0.1,2.3,1.7,4.3,4,4.4c2.3,0.1,4.3-1.7,4.4-4c0-0.1,0-0.3,0-0.4
			c0-1.1-0.4-2.2-1.2-3c-0.8-0.8-1.9-1.2-3-1.2C10.4,8.5,8.5,10.4,8.5,12.7L8.5,12.7z M11.7,22.1c0-0.3,0.1-0.5,0.3-0.7
			c0.2-0.2,0.5-0.3,0.7-0.3c0.3,0,0.5,0.1,0.7,0.3c0.2,0.2,0.3,0.5,0.3,0.7v2.4c0,0.3-0.1,0.5-0.3,0.7c-0.2,0.2-0.4,0.3-0.7,0.3
			c-0.3,0-0.5-0.1-0.7-0.3c-0.2-0.2-0.3-0.5-0.3-0.7L11.7,22.1z M11.7,3.5V1c0-0.3,0.1-0.5,0.3-0.7C12.2,0.1,12.5,0,12.8,0
			c0.3,0,0.5,0.1,0.7,0.3c0.2,0.2,0.3,0.4,0.3,0.7v2.5c0,0.3-0.1,0.5-0.3,0.7c-0.2,0.2-0.5,0.3-0.7,0.3c-0.3,0-0.6-0.1-0.8-0.3
			C11.8,4,11.7,3.7,11.7,3.5L11.7,3.5z M18.4,19.3c0-0.5,0.4-0.9,0.9-0.9c0,0,0,0,0,0l0,0c0.3,0,0.5,0.1,0.7,0.3l1.8,1.7
			c0.2,0.2,0.3,0.5,0.3,0.7c0,0.3-0.1,0.5-0.3,0.7c-0.4,0.4-1,0.4-1.4,0l-1.7-1.7C18.4,19.9,18.3,19.6,18.4,19.3z M18.4,6.2
			c0-0.3,0.1-0.5,0.3-0.7l1.7-1.8c0.2-0.2,0.4-0.3,0.7-0.3c0.3,0,0.5,0.1,0.7,0.3C21.9,3.9,22,4.2,22,4.5c0,0.3-0.1,0.5-0.3,0.7
			L20,6.9c-0.2,0.2-0.5,0.3-0.7,0.3c-0.3,0-0.5-0.1-0.7-0.3C18.4,6.7,18.3,6.5,18.4,6.2L18.4,6.2z M21.1,12.7c0-0.3,0.1-0.5,0.3-0.7
			c0.2-0.2,0.4-0.3,0.7-0.3h2.4c0.6,0,1,0.4,1.1,0.9c0,0.3-0.1,0.6-0.3,0.8c-0.2,0.2-0.4,0.3-0.7,0.3H22c-0.3,0-0.5-0.1-0.7-0.3
			C21.1,13.3,21,13,21.1,12.7z"/>
	</g>
</g>
</svg>
