<svg xmlns="http://www.w3.org/2000/svg" viewBox="0 0 16.96 17.04"><defs><style>.cls-1{fill:#fff;}</style></defs><title>clear-night</title><g id="Lager_2" data-name="Lager 2"><g id="Lager_1-2" data-name="Lager 1"><path id="Icon_weather-night-clear" data-name="Icon weather-night-clear" class="cls-1" d="M0,8.52a8.61,8.61,0,0,1,2.48-6A8.68,8.68,0,0,1,5.21.68,8.3,8.3,0,0,1,8.51,0H9.88a.32.32,0,0,1,.27.34l.06,1a5.58,5.58,0,0,0,1.65,3.89A5.48,5.48,0,0,0,15.68,7l1,.08a.25.25,0,0,1,.28.21.2.2,0,0,1,0,.07V8.52a8.34,8.34,0,0,1-1.12,4.27A8.48,8.48,0,0,1,5.16,16.36a8.26,8.26,0,0,1-2.71-1.81,8.5,8.5,0,0,1-1.8-2.71A8.8,8.8,0,0,1,0,8.52Zm2.2,0a6.34,6.34,0,0,0,4,5.93,5.77,5.77,0,0,0,2.32.48,5.71,5.71,0,0,0,2.12-.41,7.42,7.42,0,0,0,2-1.15,6.62,6.62,0,0,0,1.57-1.88A7,7,0,0,0,15,9a8.59,8.59,0,0,1-4.7-2.52A7.6,7.6,0,0,1,8.3,2,6.17,6.17,0,0,0,5.17,3a6.64,6.64,0,0,0-3,5.49Z"/></g></g></svg>