<svg xmlns="http://www.w3.org/2000/svg" viewBox="0 0 25.49 25.51"><title>clear-day</title><g id="Lager_2" data-name="Lager 2"><g id="Lager_1-2" data-name="Lager 1"><path id="Icon_weather-day-sunny" data-name="Icon weather-day-sunny" d="M0,12.74a1,1,0,0,1,1-1H3.47a.9.9,0,0,1,.7.3,1.14,1.14,0,0,1,0,1.47.89.89,0,0,1-.7.3H1a1,1,0,0,1-.72-.3A1,1,0,0,1,0,12.74Zm3.43,8.32a1.09,1.09,0,0,1,.28-.73l1.76-1.72a.91.91,0,0,1,.71-.27,1,1,0,0,1,.72.27.91.91,0,0,1,.29.69,1.13,1.13,0,0,1-.29.76l-1.7,1.7a1.08,1.08,0,0,1-1.48,0A1,1,0,0,1,3.43,21.06Zm0-16.61a1.09,1.09,0,0,1,.28-.73,1.14,1.14,0,0,1,.77-.3,1,1,0,0,1,.7.29L6.9,5.47a1,1,0,0,1,.29.71,1,1,0,0,1-1,1H6.18a1,1,0,0,1-.71-.29L3.72,5.18A1,1,0,0,1,3.43,4.45Zm3.06,8.29a6,6,0,0,1,.84-3.12A6.29,6.29,0,0,1,9.62,7.33a6.27,6.27,0,0,1,7.54,1A6.3,6.3,0,0,1,19,12.76a6.05,6.05,0,0,1-.84,3.13A6.24,6.24,0,0,1,6.49,12.74Zm2,0a4.24,4.24,0,1,0,8.47,0,4,4,0,0,0-1.24-3,4.12,4.12,0,0,0-3-1.22,4.22,4.22,0,0,0-4.23,4.18Zm3.19,9.34a1,1,0,0,1,.3-.72,1,1,0,0,1,.72-.29,1,1,0,0,1,.74.29,1,1,0,0,1,.28.72v2.39a1,1,0,0,1-.3.74.92.92,0,0,1-.72.3.94.94,0,0,1-.72-.3,1.05,1.05,0,0,1-.3-.74Zm0-18.6V1A1,1,0,0,1,12,.31,1,1,0,0,1,12.76,0a.94.94,0,0,1,.72.3,1,1,0,0,1,.3.72V3.48a1,1,0,0,1-.3.7,1.09,1.09,0,0,1-.72.28A1,1,0,0,1,12,4.18.94.94,0,0,1,11.72,3.48ZM18.35,19.3a.94.94,0,0,1,.93-.95h0a1.09,1.09,0,0,1,.72.28l1.75,1.71a1.06,1.06,0,0,1,.29.74,1,1,0,0,1-.29.7,1.05,1.05,0,0,1-1.44,0l-1.7-1.7A1.1,1.1,0,0,1,18.35,19.3Zm0-13.1a1,1,0,0,1,.27-.71l1.7-1.76A1,1,0,0,1,21,3.44a.93.93,0,0,1,.72.3.94.94,0,0,1,.3.72,1,1,0,0,1-.29.74L20,6.91a1,1,0,0,1-.72.29.89.89,0,0,1-.68-.29,1,1,0,0,1-.27-.72Zm2.71,6.54a1.07,1.07,0,0,1,.28-.74.94.94,0,0,1,.69-.29h2.43a1,1,0,0,1,.72,1.75.94.94,0,0,1-.72.3H22a.9.9,0,0,1-.7-.3A1,1,0,0,1,21.06,12.74Z"/></g></g></svg>