<svg xmlns="http://www.w3.org/2000/svg" viewBox="0 0 29.7 21.06"><defs><style>.cls-1{fill:#fff;}</style></defs><title>fog-night</title><g id="Lager_2" data-name="Lager 2"><g id="Lager_1-2" data-name="Lager 1"><path id="Icon_weather-fog" data-name="Icon weather-fog" class="cls-1" d="M0,16.36a1,1,0,0,1,.3-.73,1.06,1.06,0,0,1,.76-.29h22.4a1,1,0,0,1,1,.95v.07a.89.89,0,0,1-.3.7,1.09,1.09,0,0,1-.72.28H1.06a1.17,1.17,0,0,1-.76-.28A.89.89,0,0,1,0,16.36Zm3.14-3.77a1,1,0,0,1,.32-.72,1,1,0,0,1,.7-.27h22.4a1,1,0,0,1,1,1v0a1.09,1.09,0,0,1-.28.72,1,1,0,0,1-.7.3H4.16a.94.94,0,0,1-.72-.3A1,1,0,0,1,3.14,12.59ZM3.3,9.72c0,.11.06.16.18.16H5.2c.07,0,.15-.06.24-.19A3.71,3.71,0,0,1,6.71,8.16a3.65,3.65,0,0,1,1.86-.67l.66-.08c.13,0,.2-.07.2-.22l.08-.6a4.87,4.87,0,0,1,1.65-3.24,5.14,5.14,0,0,1,6.81,0,4.84,4.84,0,0,1,1.65,3.22l.1.68c0,.13.08.2.24.2h1.9A3.78,3.78,0,0,1,24,8.06a3.83,3.83,0,0,1,1.41,1.65c.09.13.17.19.25.19h1.72c.14,0,.2-.08.16-.28a5.68,5.68,0,0,0-2.08-3,5.8,5.8,0,0,0-3.57-1.16h-.38A7.07,7.07,0,0,0,19,1.52,6.85,6.85,0,0,0,14.59,0a6.94,6.94,0,0,0-4.47,1.58,7,7,0,0,0-2.51,4A5.72,5.72,0,0,0,4.92,7.07,5.78,5.78,0,0,0,3.31,9.68v0S3.3,9.68,3.3,9.72ZM5.23,20a1,1,0,0,1,.31-.71,1,1,0,0,1,.72-.27H28.68a1,1,0,0,1,.72.27.9.9,0,0,1,.3.7,1,1,0,0,1-1,1H6.26a1,1,0,0,1-.72-.32A1,1,0,0,1,5.23,20Z"/></g></g></svg>