<svg xmlns="http://www.w3.org/2000/svg" viewBox="0 0 24.88 24.07"><title>rain-day</title><g id="Lager_2" data-name="Lager 2"><g id="Lager_1-2" data-name="Lager 1"><path id="Icon_weather-rain" data-name="Icon weather-rain" d="M0,11.36A5.75,5.75,0,0,1,1.3,7.68,5.81,5.81,0,0,1,4.58,5.6a7,7,0,0,1,2.53-4,7.15,7.15,0,0,1,8.91,0,7,7,0,0,1,2.52,3.94h.39a6.07,6.07,0,0,1,3,.78,5.86,5.86,0,0,1,3,5.1,5.94,5.94,0,0,1-2.83,5.09,5.59,5.59,0,0,1-2.88.85c-.16,0-.24-.07-.24-.2V15.5q0-.21.24-.21a3.69,3.69,0,0,0,2.61-1.23,3.8,3.8,0,0,0,1.08-2.71,3.66,3.66,0,0,0-1.17-2.71,3.81,3.81,0,0,0-2.78-1.15H17a.18.18,0,0,1-.21-.2l-.1-.7A4.91,4.91,0,0,0,15,3.34a5.11,5.11,0,0,0-6.84,0A4.8,4.8,0,0,0,6.53,6.59l-.08.63a.21.21,0,0,1-.19.23h0l-.64,0A4,4,0,0,0,3.05,8.77a3.68,3.68,0,0,0-1,2.59,3.84,3.84,0,0,0,1.08,2.71A3.69,3.69,0,0,0,5.73,15.3a.18.18,0,0,1,.2.21v1.6a.2.2,0,0,1-.17.2h0a5.84,5.84,0,0,1-4.08-1.83A5.68,5.68,0,0,1,0,11.36Zm6.42,8a1,1,0,0,1,0-.24l2-6.92a.93.93,0,0,1,.38-.53,1,1,0,0,1,.84-.14.91.91,0,0,1,.65.44,1,1,0,0,1,.1.8l-2,6.88a.94.94,0,0,1-1,.77.28.28,0,0,1-.13,0l-.12,0a1,1,0,0,1-.59-.4A1.09,1.09,0,0,1,6.42,19.39Zm3.15,3.37,2.92-10.52a.79.79,0,0,1,.36-.53,1.13,1.13,0,0,1,.59-.18,1.24,1.24,0,0,1,.33,0,.88.88,0,0,1,.58.47,1,1,0,0,1,.09.76L11.52,23.34a.89.89,0,0,1-.35.52,1,1,0,0,1-.61.21.8.8,0,0,1-.3-.06,1,1,0,0,1-.62-.47A.93.93,0,0,1,9.57,22.76Zm4.95-3.34a1.26,1.26,0,0,1,.05-.28l2-6.92a.93.93,0,0,1,.36-.53.91.91,0,0,1,.55-.18,1.63,1.63,0,0,1,.31,0,1,1,0,0,1,.55.38.94.94,0,0,1,.18.56,1,1,0,0,1,0,.17c0,.07,0,.12,0,.14l-1.95,6.88a.87.87,0,0,1-.34.55.92.92,0,0,1-.61.2l-.29-.06a.93.93,0,0,1-.55-.38A1,1,0,0,1,14.52,19.42Z"/></g></g></svg>