<svg xmlns="http://www.w3.org/2000/svg" viewBox="0 0 36 33"><defs><style>.cls-1{fill:#1d1d1b;}</style></defs><title>sunset-day</title><g id="Lager_2" data-name="Lager 2"><g id="Lager_1-2" data-name="Lager 1"><path class="cls-1" d="M18,16.5a9,9,0,0,0-9,9,1.5,1.5,0,0,0,3,0,6,6,0,0,1,12,0,1.5,1.5,0,0,0,3,0A9,9,0,0,0,18,16.5Z"/><path class="cls-1" d="M7.4,17a1.5,1.5,0,0,0,2.12,0,1.49,1.49,0,0,0,0-2.12L7.39,12.77a1.5,1.5,0,0,0-2.12,2.12Z"/><path class="cls-1" d="M1.5,27h3a1.5,1.5,0,0,0,0-3h-3a1.5,1.5,0,0,0,0,3Z"/><path class="cls-1" d="M30,25.5A1.5,1.5,0,0,0,31.5,27h3a1.5,1.5,0,0,0,0-3h-3A1.5,1.5,0,0,0,30,25.5Z"/><path class="cls-1" d="M27.54,17.46A1.51,1.51,0,0,0,28.6,17l2.13-2.13a1.5,1.5,0,1,0-2.12-2.12L26.48,14.9a1.49,1.49,0,0,0,0,2.12A1.51,1.51,0,0,0,27.54,17.46Z"/><path class="cls-1" d="M34.5,30H1.5a1.5,1.5,0,0,0,0,3h33a1.5,1.5,0,0,0,0-3Z"/><path class="cls-1" d="M16.94,13.06a1.51,1.51,0,0,0,.49.33h0a1.43,1.43,0,0,0,1.1,0h0a1.51,1.51,0,0,0,.49-.33l6-6a1.5,1.5,0,0,0-2.12-2.12L19.5,8.38V1.5a1.5,1.5,0,0,0-3,0V8.38L13.06,4.94a1.5,1.5,0,0,0-2.12,2.12Z"/></g></g></svg>