<svg xmlns="http://www.w3.org/2000/svg" viewBox="0 0 24.92 24.55"><defs><style>.cls-1{fill:#fff;}</style></defs><title>thunder-night</title><g id="Lager_2" data-name="Lager 2"><g id="Lager_1-2" data-name="Lager 1"><path id="Icon_weather-thunderstorm" data-name="Icon weather-thunderstorm" class="cls-1" d="M0,11.4A5.72,5.72,0,0,0,1.19,15a6,6,0,0,0,3.09,2.15l-.79,2c0,.17,0,.26.17.26H6.22L5,24.55h.34l4.7-6.9a.12.12,0,0,0,0-.17.18.18,0,0,0-.18-.08H7.3l3-5.57c.09-.17,0-.26-.17-.26H6.58a.31.31,0,0,0-.28.18L5,15.19A3.85,3.85,0,0,1,2.89,13.8a3.85,3.85,0,0,1,.18-5A4,4,0,0,1,5.59,7.5l.64-.08c.15,0,.24-.07.24-.22l.08-.61A5.09,5.09,0,0,1,11.62,2a5.16,5.16,0,0,1,5.1,4.58l.08.7c0,.13.07.2.22.2h1.92a3.86,3.86,0,0,1,2.78,1.14,3.81,3.81,0,0,1,.1,5.39,4,4,0,0,1-2.64,1.25q-.24,0-.24.21v1.65c0,.13.08.2.24.2a6,6,0,0,0,5.74-5.95,5.94,5.94,0,0,0-6-5.94h-.38a7.19,7.19,0,0,0-14,.16A5.93,5.93,0,0,0,0,11.4ZM9.77,23.05a.9.9,0,0,0,.7.93h.3a1,1,0,0,0,.59-.18.86.86,0,0,0,.38-.58l2.7-10.42a1,1,0,0,0-.68-1.25l-.32,0a1,1,0,0,0-.56.18.89.89,0,0,0-.37.54L9.79,22.72C9.78,22.84,9.77,22.94,9.77,23.05Zm5-3.67a.93.93,0,0,0,.12.46,1.2,1.2,0,0,0,.61.52,1.13,1.13,0,0,0,.36.06.76.76,0,0,0,.39-.1.91.91,0,0,0,.5-.68l1.72-6.8a1.8,1.8,0,0,0,.06-.32.87.87,0,0,0-.19-.54,1,1,0,0,0-.55-.39l-.31,0a.92.92,0,0,0-.57.18,1,1,0,0,0-.36.54l-1.75,6.84a.62.62,0,0,1,0,.13A.3.3,0,0,0,14.76,19.38Z"/></g></g></svg>