<svg xmlns="http://www.w3.org/2000/svg" viewBox="0 0 26.66 17.46"><defs><style>.cls-1{fill:#fff;}</style></defs><title>clouds-night</title><g id="Lager_2" data-name="Lager 2"><g id="Lager_1-2" data-name="Lager 1"><path id="Icon_weather-cloudy" data-name="Icon weather-cloudy" class="cls-1" d="M0,12.36a5.1,5.1,0,0,1,4-5,6.1,6.1,0,0,1,6-4.8A6,6,0,0,1,13.76,3.9a5.86,5.86,0,0,1,2.16,3.36h.33a5.11,5.11,0,0,1,5.11,5.09h0a5.11,5.11,0,0,1-5.11,5.11H5.12a4.69,4.69,0,0,1-2-.41A5.37,5.37,0,0,1,1.5,16,5.46,5.46,0,0,1,.41,14.35,5,5,0,0,1,0,12.36Zm1.74,0a3.22,3.22,0,0,0,1,2.35,3.26,3.26,0,0,0,2.39,1H16.25a3.4,3.4,0,0,0,3.39-3.34,3.17,3.17,0,0,0-1-2.35,3.27,3.27,0,0,0-2.39-1H14.58a.16.16,0,0,1-.18-.14v0l-.08-.59A4.37,4.37,0,0,0,10,4.32,4.29,4.29,0,0,0,7,5.45,4.19,4.19,0,0,0,5.58,8.26l-.08.5c0,.12-.06.18-.2.18L4.76,9a3.26,3.26,0,0,0-2.17,1.07A3.41,3.41,0,0,0,1.74,12.36ZM12.36,1.9c-.12.11-.1.19.08.25a9.91,9.91,0,0,1,1.3.66c.14,0,.23,0,.27,0a3.71,3.71,0,0,1,5.23.1,3.66,3.66,0,0,1,1,2.24l.11.77h1.7a2.83,2.83,0,0,1,2.11,4.72,2.82,2.82,0,0,1-1.83.92c-.12,0-.18.06-.18.19v1.36c0,.13.06.19.18.19a4.57,4.57,0,0,0-.28-9.13h-.18A5.58,5.58,0,0,0,16.55,0,5.28,5.28,0,0,0,12.36,1.9Z"/></g></g></svg>