<svg xmlns="http://www.w3.org/2000/svg" viewBox="0 0 24.85 24"><defs><style>.cls-1{fill:#fff;}</style></defs><title>snow-night</title><g id="Lager_2" data-name="Lager 2"><g id="Lager_1-2" data-name="Lager 1"><path id="Icon_weather-snow" data-name="Icon weather-snow" class="cls-1" d="M0,11.42a5.75,5.75,0,0,1,1.27-3.7A5.94,5.94,0,0,1,4.56,5.6a7.08,7.08,0,0,1,2.52-4,7.17,7.17,0,0,1,8.92,0,7,7,0,0,1,2.52,3.94h.38a5.93,5.93,0,0,1,6,5.92v0a5.93,5.93,0,0,1-5.72,5.9c-.16,0-.24-.08-.24-.2v-1.6c0-.15.08-.22.24-.22a3.72,3.72,0,0,0,2.61-1.22,3.92,3.92,0,0,0-.2-5.55,3.86,3.86,0,0,0-2.66-1H16.94a.19.19,0,0,1-.21-.2l-.1-.7a5.11,5.11,0,0,0-10.17,0l-.07.6a.21.21,0,0,1-.19.23h0l-.63.09A3.66,3.66,0,0,0,3,8.78a3.91,3.91,0,0,0,.29,5.53,3.86,3.86,0,0,0,2.38,1c.13,0,.2.07.2.22v1.6a.18.18,0,0,1-.16.2h0a5.69,5.69,0,0,1-4.08-1.8A6,6,0,0,1,0,11.42ZM7.63,16.3a1,1,0,0,1,.29-.7,1,1,0,0,1,.71-.29,1,1,0,0,1,1,1,1,1,0,0,1-.28.69,1,1,0,0,1-1.42,0A1,1,0,0,1,7.63,16.3Zm0,4.36a1,1,0,0,1,.93-1h.06a1,1,0,0,1,.7.27,1,1,0,0,1,0,1.42.88.88,0,0,1-.7.27,1,1,0,0,1-.71-.27A1,1,0,0,1,7.63,20.66Zm3.83-2a1.09,1.09,0,0,1,.3-.75,1,1,0,0,1,.68-.29,1.07,1.07,0,0,1,1,1,1,1,0,0,1-1,1h0a1,1,0,0,1-.7-.3A1.09,1.09,0,0,1,11.46,18.62Zm0-4.35a1,1,0,0,1,1-1,1.05,1.05,0,0,1,.74.3,1,1,0,0,1,.3.72,1,1,0,0,1-.3.71,1,1,0,0,1-.74.29.94.94,0,0,1-.7-.29,1,1,0,0,1-.28-.71Zm0,8.74a1,1,0,0,1,.3-.73.94.94,0,0,1,.68-.29,1,1,0,0,1,1,1h0a1,1,0,0,1-1,1,.93.93,0,0,1-.7-.28A1,1,0,0,1,11.46,23Zm3.86-6.71a1,1,0,0,1,.3-.7,1,1,0,0,1,.72-.3,1,1,0,0,1,.71,1.7.91.91,0,0,1-.71.3.94.94,0,0,1-.72-.3A1,1,0,0,1,15.32,16.3Zm0,4.36a1,1,0,0,1,1-1h.05a1,1,0,0,1,.71.27,1,1,0,0,1,.28.71,1,1,0,0,1-.28.71.89.89,0,0,1-.71.27,1,1,0,0,1-.72-.28A.93.93,0,0,1,15.32,20.66Z"/></g></g></svg>