<?xml version="1.0" encoding="utf-8"?>
<!-- Generator: Adobe Illustrator 24.0.3, SVG Export Plug-In . SVG Version: 6.00 Build 0)  -->
<svg version="1.1" id="Lager_1" xmlns="http://www.w3.org/2000/svg" xmlns:xlink="http://www.w3.org/1999/xlink" x="0px" y="0px"
	 viewBox="0 0 16 16" style="enable-background:new 0 0 16 16;" xml:space="preserve">
<style type="text/css">
	.st0{fill:#425059;}
</style>
<g id="Lager_2_1_">
	<g id="Lager_1-2">
		<path id="Icon_weather-day-sunny" class="st0" d="M0.2,8c0-0.4,0.2-0.6,0.6-0.6h1.5c0.2,0,0.3,0.1,0.4,0.2C3,7.8,3,8.2,2.8,8.5
			C2.7,8.6,2.5,8.6,2.4,8.6H0.8c-0.2,0-0.3-0.1-0.4-0.2S0.2,8.2,0.2,8z M2.3,13.1c0-0.2,0.1-0.3,0.2-0.4l1.1-1
			c0.1-0.1,0.2-0.2,0.4-0.2c0.2,0,0.3,0.1,0.4,0.2c0.1,0.1,0.2,0.2,0.2,0.4c0,0.2-0.1,0.4-0.2,0.5l-1,1c-0.2,0.2-0.7,0.2-0.9,0
			C2.4,13.4,2.3,13.2,2.3,13.1z M2.3,2.9c0-0.2,0.1-0.3,0.2-0.4S2.8,2.3,3,2.3c0.2,0,0.3,0.1,0.4,0.2l1,1.1C4.5,3.7,4.6,3.8,4.6,4
			c0,0.4-0.2,0.6-0.6,0.6l0,0c-0.2,0-0.3-0.1-0.4-0.2l-1.1-1C2.4,3.3,2.3,3.1,2.3,2.9z M4.2,8c0-0.7,0.2-1.3,0.5-1.9
			c0.4-0.6,0.8-1,1.4-1.4c1.5-0.8,3.3-0.6,4.5,0.6C11.3,6,11.7,7,11.7,8c0,0.7-0.2,1.3-0.5,1.9c-1,1.8-3.3,2.5-5.2,1.5
			C4.9,10.6,4.2,9.4,4.2,8z M5.4,8c-0.1,1.4,1,2.6,2.4,2.7c1.4,0.1,2.6-1,2.7-2.4c0-0.1,0-0.2,0-0.2c0-0.7-0.2-1.3-0.7-1.8
			C9.3,5.7,8.6,5.4,7.9,5.4C6.5,5.4,5.4,6.6,5.4,8L5.4,8z M7.3,13.7c0-0.2,0.1-0.3,0.2-0.4c0.1-0.1,0.3-0.2,0.4-0.2
			c0.2,0,0.3,0.1,0.4,0.2c0.1,0.1,0.2,0.3,0.2,0.4v1.5c0,0.2-0.1,0.3-0.2,0.4c-0.1,0.1-0.2,0.2-0.4,0.2s-0.3-0.1-0.4-0.2
			c-0.1-0.1-0.2-0.3-0.2-0.4V13.7z M7.3,2.4V0.9c0-0.2,0.1-0.3,0.2-0.4C7.6,0.3,7.8,0.3,8,0.3c0.2,0,0.3,0.1,0.4,0.2
			c0.1,0.1,0.2,0.2,0.2,0.4v1.5c0,0.2-0.1,0.3-0.2,0.4C8.3,2.9,8.1,3,8,3C7.8,3,7.6,2.9,7.5,2.8C7.4,2.7,7.3,2.5,7.3,2.4L7.3,2.4z
			 M11.4,12c0-0.3,0.2-0.5,0.5-0.5l0,0l0,0c0.2,0,0.3,0.1,0.4,0.2l1.1,1c0.1,0.1,0.2,0.3,0.2,0.4c0,0.2-0.1,0.3-0.2,0.4
			c-0.2,0.2-0.6,0.2-0.8,0l-1-1C11.4,12.3,11.3,12.2,11.4,12z M11.4,4c0-0.2,0.1-0.3,0.2-0.4l1-1.1c0.1-0.1,0.2-0.2,0.4-0.2
			c0.2,0,0.3,0.1,0.4,0.2c0.1,0.1,0.1,0.3,0.1,0.5s-0.1,0.3-0.2,0.4l-1,1c-0.1,0.1-0.3,0.2-0.4,0.2c-0.2,0-0.3-0.1-0.4-0.2
			C11.4,4.3,11.3,4.2,11.4,4L11.4,4z M13,8c0-0.2,0.1-0.3,0.2-0.4c0.1-0.1,0.2-0.2,0.4-0.2h1.5c0.4,0,0.6,0.2,0.7,0.5
			c0,0.2-0.1,0.4-0.2,0.5c-0.1,0.1-0.2,0.2-0.4,0.2h-1.6c-0.2,0-0.3-0.1-0.4-0.2C13,8.3,13,8.2,13,8z"/>
	</g>
</g>
</svg>
