<?xml version="1.0" standalone="no"?>
<!DOCTYPE svg PUBLIC "-//W3C//DTD SVG 20010904//EN"
 "http://www.w3.org/TR/2001/REC-SVG-20010904/DTD/svg10.dtd">
<svg version="1.0" xmlns="http://www.w3.org/2000/svg"
 width="700.000000pt" height="700.000000pt" viewBox="0 0 700.000000 700.000000"
 preserveAspectRatio="xMidYMid meet">
<metadata>
Created by potrace 1.11, written by Peter Selinger 2001-2013
</metadata>
<g transform="translate(0.000000,700.000000) scale(0.100000,-0.100000)"
fill="#000000" stroke="none">
<path d="M3393 6982 c-59 -21 -112 -59 -143 -103 -47 -65 -49 -95 -47 -512 2
-389 2 -392 26 -440 31 -63 74 -105 139 -135 142 -65 317 -2 380 137 l25 55 0
380 c0 382 -3 438 -29 487 -20 40 -86 103 -129 123 -55 27 -158 30 -222 8z"/>
<path d="M1135 6053 c-136 -41 -213 -152 -202 -289 8 -108 38 -152 204 -310
81 -76 174 -165 207 -197 224 -215 242 -228 340 -232 86 -4 151 20 207 75 112
112 105 274 -17 405 -106 113 -319 339 -403 427 -47 50 -102 96 -127 108 -55
27 -144 33 -209 13z"/>
<path d="M5687 6054 c-64 -22 -84 -40 -242 -209 -62 -67 -259 -277 -309 -330
-69 -72 -93 -114 -101 -174 -18 -134 -6 -181 65 -245 56 -50 103 -69 175 -69
121 -2 140 13 575 462 144 150 164 185 161 291 -1 74 -36 186 -65 215 -60 60
-179 87 -259 59z"/>
<path d="M3489 5226 c-2 -2 -53 -6 -114 -9 -520 -27 -1014 -308 -1312 -747
-87 -128 -200 -376 -218 -480 -3 -18 -8 -37 -10 -41 -7 -11 -33 -139 -40 -195
-3 -27 -8 -65 -11 -84 -6 -43 -6 -292 0 -345 3 -22 7 -53 10 -70 3 -16 8 -48
11 -70 4 -22 11 -58 17 -80 5 -22 11 -47 13 -55 2 -8 17 -58 35 -110 170 -504
562 -904 1042 -1065 182 -61 323 -85 520 -89 171 -4 303 13 473 59 617 169
1081 658 1218 1285 34 153 39 200 42 365 2 136 -11 278 -35 380 -6 28 -13 59
-16 69 -2 10 -8 33 -14 51 -6 18 -12 41 -14 51 -3 10 -20 58 -40 106 -176 433
-481 743 -926 941 -129 58 -358 112 -515 123 -55 3 -103 8 -106 10 -3 2 -8 2
-10 0z m193 -580 c401 -75 737 -364 875 -751 54 -151 77 -411 54 -588 -54
-408 -321 -759 -694 -913 -66 -27 -139 -52 -172 -59 -68 -14 -86 -17 -140 -24
-65 -9 -235 -7 -300 4 -505 80 -895 472 -969 972 -13 89 -14 300 -1 383 19
130 70 285 131 396 238 435 731 671 1216 580z"/>
<path d="M205 3780 c-90 -21 -162 -86 -190 -170 -42 -127 8 -288 111 -357 28
-18 64 -36 80 -40 16 -3 205 -6 419 -6 370 0 392 1 436 20 181 81 225 333 83
477 -80 81 -67 79 -514 81 -217 1 -408 -2 -425 -5z"/>
<path d="M5960 3775 c-56 -17 -122 -72 -154 -128 -35 -59 -56 -195 -40 -245
16 -47 111 -135 163 -150 43 -14 816 -19 867 -6 44 11 111 61 145 107 36 50
62 135 56 185 -13 111 -105 212 -219 240 -72 18 -758 15 -818 -3z"/>
<path d="M1620 1941 c-49 -15 -94 -51 -238 -188 -80 -76 -158 -149 -172 -163
-228 -212 -268 -262 -278 -346 -10 -89 43 -233 103 -278 96 -74 236 -80 339
-17 17 11 145 135 285 277 294 298 306 316 306 449 0 69 -4 86 -27 127 -68
114 -204 174 -318 139z"/>
<path d="M5200 1935 c-56 -18 -115 -66 -139 -113 -23 -46 -41 -148 -36 -201 4
-37 49 -121 65 -121 3 0 121 -115 261 -255 283 -284 313 -307 418 -308 106 -1
207 67 253 171 22 50 25 109 8 173 -20 75 -24 79 -295 334 -71 68 -168 159
-215 204 -47 44 -105 91 -129 103 -55 27 -132 32 -191 13z"/>
<path d="M3418 1199 c-53 -12 -108 -46 -150 -93 -65 -71 -66 -82 -66 -493 -1
-328 1 -374 17 -421 38 -111 129 -184 234 -188 36 -1 82 4 111 14 66 21 137
92 164 162 20 53 21 70 19 435 -2 380 -2 380 -26 427 -31 61 -92 124 -139 144
-43 19 -112 24 -164 13z"/>
</g>
</svg>
